<svg width="370" height="359" viewBox="0 0 370 359" fill="none" xmlns="http://www.w3.org/2000/svg">
<path d="M109.062 170.503C108.887 170.238 110.645 168.298 113.721 165.299L118.555 160.536V150.833C118.555 142.983 118.643 141.042 118.994 140.689C119.609 140.16 153.623 140.16 154.238 140.689C154.854 141.219 154.941 169.886 154.326 170.503C153.711 171.032 109.414 171.032 109.062 170.503ZM167.07 170.503C166.807 170.238 166.631 166.446 166.631 155.596C166.631 144.747 166.719 141.042 167.07 140.689C167.334 140.425 171.816 140.248 185 140.248C202.139 140.248 202.49 140.248 202.842 140.954C203.105 141.395 203.193 146.246 203.105 155.949C203.018 168.21 202.93 170.327 202.49 170.591C201.699 171.032 167.51 171.032 167.07 170.503ZM215.498 170.679C215.146 170.503 215.059 167.239 215.059 155.596C215.059 142.365 215.146 140.689 215.586 140.513C215.85 140.425 223.848 140.336 233.252 140.336C246.172 140.336 250.478 140.425 250.83 140.777C251.094 141.042 251.27 143.865 251.27 151.098V160.977L256.103 165.563C258.74 168.121 260.85 170.327 260.762 170.503C260.674 170.768 216.377 171.032 215.498 170.679ZM0.166017 131.692C0.0781265 131.428 0.781251 128.693 1.74805 125.694C2.71484 122.607 4.82422 115.992 6.40625 110.964C7.98828 105.936 10.0098 99.4969 10.8887 96.6743C11.7676 93.8517 13.9648 86.9716 15.7227 81.4146C17.4805 75.7694 20.3809 66.5959 22.2266 61.0389C24.8633 52.8357 30.5762 34.7534 33.3887 25.8446C33.6523 24.9625 34.0039 24.0804 34.1797 23.8158C34.4434 23.3748 38.8379 23.2866 69.3359 23.1984C93.2422 23.1102 104.404 23.1984 104.844 23.463C105.459 23.8158 105.459 24.2569 105.459 31.4016C105.459 38.9873 105.459 38.9873 106.162 39.1637C106.602 39.2519 116.094 39.3401 127.344 39.3401C148.877 39.3401 151.338 39.5166 155.557 41.0161C160.039 42.6038 163.467 45.4264 165.225 49.1311L166.279 51.4244L166.455 45.6028C166.543 42.4274 166.719 39.693 166.807 39.6048C167.07 39.3401 215.146 39.1637 215.41 39.4284C215.498 39.5166 216.729 43.7505 218.135 48.7782C222.09 63.4205 225.518 75.5048 225.693 75.6812C226.045 76.034 226.221 75.4166 227.891 69.4185C228.769 66.0667 230.791 59.0102 232.197 53.7178C233.691 48.4254 235.098 43.2212 235.361 42.1628C235.625 41.1043 235.977 40.0458 236.24 39.7812C236.504 39.4284 239.228 39.3401 249.072 39.3401C255.928 39.3401 262.168 39.2519 262.871 39.0755L264.189 38.8109L264.277 31.2252C264.365 25.6682 264.453 23.5512 264.805 23.2866C265.42 22.8456 334.941 23.1102 335.381 23.5512C335.557 23.7276 336.787 27.2559 338.105 31.4016C339.424 35.5473 343.203 47.6316 346.631 58.2163C349.971 68.8893 353.398 79.3858 354.102 81.6792C354.805 83.8844 355.859 87.148 356.387 88.8239C356.914 90.4999 360.078 100.732 363.506 111.581C366.934 122.431 369.658 131.428 369.482 131.692C369.307 132.045 365.615 132.133 346.455 132.133C333.887 132.133 323.428 131.957 323.164 131.869C322.9 131.692 321.582 126.753 320 120.402C318.506 114.227 317.187 109.111 316.924 108.935C316.748 108.759 313.584 108.759 309.893 108.759L303.213 108.847L303.125 120.225C303.037 128.781 302.949 131.692 302.598 131.869C302.334 132.045 290.645 132.133 276.582 132.133C257.158 132.133 250.918 132.045 250.566 131.692C250.303 131.428 250.127 126.047 250.127 109.905C250.127 97.5564 250.039 88.6475 249.863 88.8239C249.6 89.0886 240.283 122.166 238.613 128.693C238.35 129.752 237.91 130.898 237.646 131.339L237.207 132.133H226.133C215.762 132.133 214.971 132.133 214.707 131.516C214.355 130.81 213.125 126.312 207.236 103.907C205.127 95.7922 203.193 89.0003 203.018 88.8239C202.754 88.5593 202.578 116.785 202.754 126.929C202.754 129.222 202.666 130.987 202.49 131.428L202.139 132.133H165.312C128.926 132.133 128.486 132.133 128.135 131.428C127.871 130.987 127.783 125.253 127.783 114.316C127.783 96.6743 127.695 96.1451 126.025 94.9102C125.234 94.2927 124.707 94.2045 122.07 94.2927C120.4 94.3809 118.994 94.3809 118.994 94.4691C118.994 94.4691 118.818 102.849 118.73 112.992C118.643 123.136 118.467 131.604 118.379 131.78C118.027 132.31 66.875 132.221 66.5234 131.692C66.3476 131.428 66.2598 126.4 66.1719 120.402C66.084 114.404 65.9961 109.288 65.9082 109.111C65.8203 108.759 64.1504 108.67 59.1406 108.67C52.5488 108.67 52.4609 108.67 52.1973 109.464C52.0215 109.905 50.791 114.933 49.3848 120.755C47.9785 126.576 46.748 131.516 46.4844 131.692C46.1328 132.398 0.429689 132.31 0.166017 131.692ZM166.543 77.5335L166.455 71.4473L165.664 73.1232C163.906 76.7397 159.512 80.2679 154.941 81.8556C154.238 82.1203 153.711 82.3849 153.711 82.4731C153.711 82.5613 155.029 83.3551 156.699 84.149C160.83 86.1777 163.291 88.5593 165.137 92.3522L166.543 95.263L166.631 89.4414C166.631 86.1777 166.631 80.8854 166.543 77.5335ZM312.353 84.0608C312.441 83.9726 311.826 81.6792 311.123 78.9448C310.42 76.2104 309.365 72.3293 308.926 70.3006C308.486 68.3601 307.695 65.5374 307.256 64.0379C306.816 62.5384 306.025 59.4512 305.41 57.0696C304.795 54.6881 304.268 52.5711 304.092 52.3065C303.652 51.6008 303.652 56.0112 303.74 77.1807V84.2372L305.674 84.3254C307.607 84.4136 312.09 84.2372 312.353 84.0608ZM66.4355 68.0954C66.4355 58.4809 66.3477 51.9537 66.1719 51.9537C65.9961 51.9537 65.6445 52.9239 65.3809 54.0706C65.1172 55.2173 64.1504 58.922 63.3594 62.2738C62.4805 65.6257 61.6894 68.8893 61.5137 69.5949C61.3379 70.2124 60.459 73.5642 59.5801 76.9161C58.6133 80.2679 57.9102 83.2669 57.9102 83.6198C57.9102 84.149 58.3496 84.2372 62.2168 84.2372H66.5234V68.0954H66.4355ZM125.234 72.9468C127.168 72.4175 127.959 71.0062 128.135 67.6544C128.398 62.1856 126.992 60.5979 121.895 60.7743L119.434 60.8625L119.346 66.5959C119.258 69.7714 119.346 72.594 119.434 72.7704C119.521 73.476 123.389 73.476 125.234 72.9468ZM118.906 30.4313C118.643 30.1667 118.467 27.4323 118.467 20.2876V10.4967L113.633 5.73352C110.645 2.82271 108.887 0.882165 108.975 0.617546C109.326 0.0883073 153.711 0.0883073 154.238 0.617546C154.502 0.882165 154.678 4.67504 154.678 15.5244C154.678 26.3738 154.59 30.0785 154.238 30.4313C153.975 30.6959 149.58 30.8723 136.572 30.8723C123.564 30.8723 119.258 30.6959 118.906 30.4313ZM167.07 30.4313C166.807 30.1667 166.631 26.3738 166.631 15.5244C166.631 4.67504 166.719 0.970371 167.07 0.617546C167.334 0.352926 171.816 0.176514 185 0.176514C201.963 0.176514 202.49 0.176514 202.842 0.793958C203.193 1.49961 203.369 29.1964 203.018 30.1667C202.842 30.6077 200.996 30.6959 185.176 30.6959C171.816 30.8723 167.334 30.6959 167.07 30.4313ZM215.498 30.5195C215.146 30.3431 215.059 26.9913 215.146 15.348L215.234 0.441133L237.822 0.352926C253.555 0.26472 260.498 0.352926 260.762 0.617546C261.025 0.882165 260.762 1.3232 259.971 2.02885C259.355 2.55809 257.158 4.76325 255.049 6.79199L251.357 10.5849V20.2876C251.357 27.4323 251.27 30.1667 250.918 30.4313C250.391 30.8723 216.201 31.0487 215.498 30.5195Z" fill="#F2F2F2"/>
<path d="M40.1562 256.769H71.2695L80.4102 247.595V203.845L71.2695 194.672H40.1562L31.0156 203.845V247.595L40.1562 256.769ZM48.418 246.361L44.8145 242.744V208.52L48.418 204.904H63.0078L66.6113 208.52V242.744L63.0078 246.361H48.418ZM91.1328 256.769H103.438V215.136L124.971 256.769H139.648V194.672H127.344V235.952L105.635 194.672H91.1328V256.769ZM151.074 256.769H188.516V245.743H164.873V194.76H151.074V256.769ZM193.965 256.769H228.77V247.154H218.311V204.286H228.77V194.672H193.965V204.286H204.424V247.154H193.965V256.769ZM237.734 256.769H250.039V215.136L271.572 256.769H286.25V194.672H273.945V235.952L252.236 194.672H237.734V256.769ZM297.676 256.769H338.721V246.184H311.475V230.572H336.172V219.987H311.475V205.345H338.545V194.76H297.676V256.769Z" fill="#FFB727"/>
<path d="M38.3984 313.044C44.8144 311.986 50.791 310.663 56.416 309.163C60.5469 308.017 63.8867 306.605 66.3477 304.753C68.8965 302.901 70.8301 300.607 72.1484 297.785C73.9941 293.904 74.873 290.728 74.873 288.258C74.873 286.847 74.4336 285.524 73.6426 284.201C72.5879 282.525 71.1816 281.202 69.5117 280.232C65.0293 277.674 58.0859 276.439 48.8574 276.439C42.5293 276.439 36.5527 276.88 30.9277 277.674C27.4121 278.203 23.6328 278.997 19.6777 280.055C15.7227 281.114 12.4707 282.26 10.0098 283.407C7.8125 284.377 6.14258 285.789 4.91211 287.641C3.85742 289.317 2.97851 291.081 2.1875 293.022C1.39648 294.962 1.04492 296.373 1.04492 297.344C1.04492 298.843 2.1875 299.637 4.47265 299.637C5.26367 299.637 6.14258 299.549 7.19727 299.461C10.5371 299.02 14.4043 298.579 18.7109 298.138C19.6777 298.049 20.2051 297.961 20.3809 297.961C21.2598 297.873 21.6113 297.52 21.6113 296.991C21.6113 296.373 20.9082 296.021 19.5898 295.844L14.0527 295.403C17.1289 294.257 19.9414 293.374 22.4902 292.669C24.8633 292.051 28.6426 291.346 33.7402 290.464L20.1172 310.045C16.3379 310.486 13.877 310.928 12.6465 311.545C10.9766 312.339 9.57031 313.397 8.51562 314.897C6.8457 317.102 6.05469 318.69 6.05469 319.395C6.05469 320.807 7.46094 321.953 10.3613 322.924C3.50586 332.979 0.166016 339.065 0.166016 341.094C0.166016 341.712 0.341798 342.241 0.781251 342.682C1.13281 343.123 1.66016 343.387 2.09961 343.387C3.1543 343.387 4.38476 342.946 5.79101 342.064C8.07617 340.653 9.21875 339.065 9.21875 337.478C9.21875 337.301 9.21875 337.037 9.13086 336.684L17.041 325.217C31.3672 330.157 42.0019 334.126 48.9453 337.037C53.6035 339.065 56.5039 340.212 57.4707 340.653C59.5801 341.447 61.0742 341.8 61.9531 341.8C63.3594 341.8 64.1504 340.477 64.1504 337.742C64.1504 333.332 63.1836 330.509 61.1621 329.274C57.3828 326.805 44.5508 322.218 22.7539 315.602L25.8301 315.073L38.3984 313.044ZM36.4648 296.726C37.6074 295.05 38.3105 293.815 38.5742 293.11C38.75 292.845 39.0137 291.699 39.1894 289.758C47.2754 288.876 52.9883 288.523 56.1523 288.523C63.7988 288.523 67.666 289.493 67.666 291.434C67.666 292.316 66.9629 293.374 65.6445 294.698C63.1836 296.991 59.668 299.108 54.9219 300.872C49.5605 302.901 40.8594 305.282 28.9062 307.929L36.4648 296.726Z" fill="#D3F2B8"/>
<path d="M148.525 332.273C144.57 332.273 142.549 330.598 142.549 327.334C142.549 326.805 142.637 326.187 142.813 325.393C149.932 322.924 154.941 320.542 157.842 318.513C162.5 315.161 164.785 311.721 164.785 308.37C164.785 305.371 162.764 303.871 158.721 303.871C156.084 303.871 153.447 304.4 150.898 305.459C146.943 307.046 143.428 309.428 140.352 312.78C136.836 316.485 134.639 320.366 133.848 324.423C133.848 324.511 133.848 324.511 133.848 324.511C127.432 329.186 122.686 331.568 119.697 331.568C115.918 331.568 114.072 329.716 114.072 326.011C114.072 324.6 114.248 322.924 114.512 321.071C122.598 312.956 128.047 307.046 130.859 303.342C133.232 300.078 134.99 296.726 135.957 293.198C137.188 288.964 137.803 286.053 137.803 284.289C137.803 283.936 137.715 283.495 137.539 283.143C137.1 282.26 136.484 281.819 135.693 281.819C135.078 281.819 133.76 282.525 131.738 284.025C125.41 288.523 119.521 294.962 114.248 303.077C109.678 310.134 106.777 317.278 105.723 324.511C102.471 326.628 99.7461 327.775 97.5488 327.775C97.1973 327.775 96.582 327.775 95.8789 327.687C98.8672 322.483 100.273 318.337 100.273 315.338C100.273 313.927 100.01 312.78 99.5703 311.898C99.2188 311.192 98.3398 310.663 96.9336 310.134C98.3398 309.428 99.043 308.634 99.043 307.752C99.043 306.87 98.7793 306.253 98.1641 305.723C97.1094 304.841 95.791 304.488 94.1211 304.488C90.6055 304.488 86.8262 305.459 82.8711 307.311C80.3223 308.546 77.9492 310.134 75.5762 312.162C73.291 314.103 71.6211 316.044 70.5664 317.896C69.7754 319.307 69.1602 321.512 68.8086 324.511C68.7207 325.834 68.6328 326.805 68.6328 327.334C68.6328 327.599 68.6328 328.04 68.7207 328.481C68.9844 330.95 69.5996 333.067 70.5664 334.655C72.5 337.919 75.1367 339.595 78.4766 339.595C81.377 339.595 84.3652 338.624 87.4414 336.596C88.6719 335.802 90.166 334.479 92.0117 332.715C93.1543 332.803 93.9453 332.891 94.5606 332.891C97.6367 332.891 101.24 331.391 105.459 328.481C105.635 331.039 105.898 332.891 106.338 334.214C107.656 337.83 110.029 339.683 113.545 339.683C115.039 339.683 116.357 339.418 117.5 338.977C119.697 338.007 122.334 336.507 125.322 334.479C127.959 332.715 130.684 330.774 133.496 328.569C133.672 331.921 134.375 334.479 135.605 336.243C137.451 338.889 140.264 340.212 143.867 340.212C147.295 340.212 151.426 338.713 156.348 335.714C159.248 333.949 162.676 331.568 166.719 328.481C166.719 328.216 166.719 327.863 166.719 327.51C166.719 326.893 166.807 325.834 166.895 324.423C162.764 327.246 159.248 329.186 156.523 330.421C153.887 331.656 151.162 332.273 148.525 332.273ZM145.186 317.719C146.064 316.132 147.207 314.72 148.613 313.486C149.932 312.251 151.338 311.28 152.832 310.487C154.238 309.604 155.381 309.252 156.172 309.252C156.875 309.252 157.227 309.604 157.227 310.222C157.227 311.28 155.908 313.045 153.359 315.338C151.25 317.278 148.086 319.131 143.779 320.895C144.482 319.131 144.922 318.072 145.186 317.719ZM123.389 300.343C125.234 297.873 127.783 295.227 130.859 292.581C129.365 296.109 127.695 299.196 125.938 301.754C124.004 304.577 120.84 308.193 116.445 312.603C119.258 307.046 121.543 302.989 123.389 300.343ZM87.4414 318.072C86.0352 320.895 85.332 323.188 85.332 325.041C85.332 326.187 85.6836 327.51 86.3867 329.098C85.4199 329.892 84.6289 330.509 84.0137 330.95C82.5195 331.832 80.8496 332.273 78.916 332.273C76.6309 332.273 75.4883 331.391 75.4883 329.627C75.4883 328.745 75.6641 327.687 76.0156 326.452C76.6309 324.335 77.5098 322.571 78.6523 321.336C80.2344 319.572 83.8379 317.19 89.4629 314.191C88.584 315.867 87.8809 317.19 87.4414 318.072Z" fill="#D3F2B8"/>
<path d="M258.389 300.607C259.092 298.138 259.443 295.668 259.443 293.286C259.443 286.671 257.07 282.084 252.236 279.438C246.963 276.527 239.932 275.028 231.23 275.028C223.32 275.028 215.674 275.91 208.379 277.762C204.687 278.644 202.139 279.614 200.644 280.673C199.678 281.29 198.711 282.525 197.48 284.289C194.053 289.405 192.383 292.492 192.383 293.375C192.383 293.992 192.822 294.257 193.701 294.257C194.844 294.257 197.041 293.727 200.293 292.669C205.391 290.905 211.103 289.67 217.432 288.964C219.365 288.788 221.914 288.523 225.254 288.17L210.576 307.399C205.215 308.987 201.611 310.222 199.853 311.192C197.305 312.692 195.986 314.456 195.986 316.485C195.986 317.808 196.426 318.954 197.217 319.925C197.744 320.542 198.623 321.248 199.853 322.13L199.238 323.188C196.162 328.304 193.877 332.185 192.471 335.008C191.416 337.125 190.889 338.801 190.889 340.036C190.889 340.83 191.064 341.447 191.504 342.064C192.119 342.858 192.91 343.299 193.877 343.299C195.107 343.299 196.338 342.594 197.656 341.271C198.447 340.389 200.205 338.095 202.93 334.214C203.721 333.067 204.16 332.185 204.16 331.656C204.16 330.774 203.545 330.245 202.402 329.892L206.27 323.629C211.104 323.982 214.531 324.247 216.641 324.247C223.232 324.247 229.648 323.1 235.977 320.807C244.678 317.631 251.182 312.956 255.488 306.694C256.807 305.106 257.686 303.077 258.389 300.607ZM251.797 298.049C251.094 299.637 250.303 301.048 249.336 302.283C247.666 304.4 245.205 306.341 241.865 308.193C235.449 311.721 228.945 313.486 222.266 313.486C220.771 313.486 218.223 313.309 214.619 312.956L216.729 309.957C218.223 309.516 220.947 308.811 224.727 307.929C225.605 307.752 225.957 307.311 225.957 306.694C225.957 306.076 225.518 305.723 224.551 305.723C224.111 305.723 222.178 305.9 218.838 306.164L229.209 291.963C230 290.905 230.439 289.493 230.527 287.729C236.68 287.906 240.898 288.259 243.096 288.7C246.523 289.405 249.072 290.111 250.566 290.993C252.061 291.875 252.852 292.933 252.852 294.257C252.852 295.139 252.5 296.374 251.797 298.049Z" fill="#D3F2B8"/>
<path d="M369.834 324.335C364.648 328.128 360.781 330.862 358.408 332.803C356.035 334.743 352.607 337.654 348.301 341.535C353.047 334.126 356.123 329.363 357.441 327.334C362.539 319.925 365.264 315.867 365.615 315.25C366.934 312.956 367.637 311.28 367.637 310.222C367.637 309.075 367.373 307.929 366.758 306.782C366.318 305.9 365.791 305.547 365.352 305.547C364.561 305.547 363.682 306.076 362.715 307.046C359.551 310.398 356.123 313.662 352.52 316.926C346.104 322.747 341.709 326.275 339.336 327.422C338.018 328.04 336.348 328.569 334.238 328.833C334.502 327.158 334.678 326.099 334.941 325.658C335.029 325.305 335.469 324.6 336.084 323.541C339.688 320.542 341.973 318.513 342.939 317.631C345.049 315.691 346.807 313.75 348.213 311.986C349.531 310.222 350.234 308.899 350.234 308.105C350.234 307.576 349.795 306.782 348.916 305.812C347.861 304.665 347.07 304.047 346.367 304.047C345.928 304.047 345.225 304.312 344.346 304.841C341.709 306.341 338.984 308.634 336.172 311.633C333.975 313.927 332.305 316.044 331.25 317.984C330.195 319.925 329.492 322.042 329.141 324.335C325.977 326.717 323.604 328.392 321.934 329.539C319.912 330.862 318.33 331.568 317.012 331.568C316.133 331.568 315.342 331.303 314.727 330.862C314.111 330.333 313.848 329.716 313.848 328.922C313.848 326.981 315.957 323.541 320.264 318.602C321.494 317.19 322.109 315.955 322.109 314.897C322.109 313.397 321.23 312.162 319.473 311.369C321.67 310.487 322.725 309.693 322.725 308.987C322.725 308.546 322.461 307.929 321.846 307.046C320.703 305.459 319.121 304.665 317.012 304.665C314.727 304.665 311.65 305.371 307.783 306.694C301.279 308.987 295.654 311.81 290.996 315.25C288.359 317.102 286.514 318.778 285.195 320.189C283.965 321.601 283.086 323.012 282.734 324.423C276.23 329.186 271.572 331.568 268.584 331.568C264.805 331.568 262.959 329.716 262.959 326.011C262.959 324.6 263.135 322.924 263.398 321.071C271.484 312.956 276.934 307.046 279.746 303.342C282.119 300.078 283.877 296.726 284.844 293.198C286.074 288.964 286.689 286.053 286.689 284.289C286.689 283.936 286.602 283.495 286.426 283.143C285.986 282.26 285.371 281.819 284.58 281.819C283.965 281.819 282.646 282.525 280.625 284.025C274.297 288.523 268.408 294.962 263.135 303.077C258.564 310.134 255.664 317.278 254.609 324.511C254.521 325.746 254.434 326.717 254.434 327.334C254.434 327.599 254.434 327.951 254.521 328.481C254.697 331.039 254.961 332.979 255.4 334.214C256.719 337.83 259.092 339.683 262.607 339.683C264.102 339.683 265.42 339.418 266.562 338.977C268.76 338.007 271.396 336.507 274.385 334.479C277.021 332.715 279.746 330.774 282.646 328.569C282.822 330.421 283.438 332.097 284.316 333.597C285.283 335.273 286.25 336.596 287.48 337.654C288.623 338.713 289.678 339.242 290.469 339.242C291.436 339.242 293.281 338.272 295.918 336.331C297.148 335.449 300.576 332.803 306.201 328.304L308.926 326.099C306.641 331.039 305.41 334.567 305.41 336.86C305.41 337.919 305.762 338.889 306.377 339.771C307.168 340.918 308.223 341.447 309.453 341.447C310.596 341.447 312.178 340.918 314.199 339.771C315.869 338.801 319.473 336.066 325.186 331.568C326.328 330.686 327.559 329.627 329.053 328.481C329.141 330.068 329.492 331.48 330.107 332.715C330.723 333.861 331.514 335.008 332.656 336.066C333.799 337.125 334.766 337.654 335.469 337.654C336.084 337.654 336.963 337.213 338.193 336.331C339.512 335.361 340.83 334.39 342.061 333.42C345.225 331.039 348.213 328.745 351.025 326.452C345.576 335.273 341.006 342.946 337.402 349.474C336.523 351.061 336.084 352.208 336.084 352.826C336.084 353.178 336.26 354.237 336.523 355.825C336.875 357.853 337.666 358.824 338.721 358.824C339.688 358.824 341.27 357.501 343.467 354.854C345.664 352.032 347.949 349.297 350.146 346.651C352.344 344.005 354.629 341.535 356.914 339.33C359.814 336.507 364.033 332.891 369.834 328.392C369.834 327.863 369.746 327.51 369.746 327.246C369.658 326.54 369.746 325.57 369.834 324.335ZM272.188 300.255C274.033 297.785 276.582 295.139 279.658 292.492C278.164 296.021 276.494 299.108 274.736 301.666C272.803 304.488 269.639 308.105 265.244 312.515C268.057 306.958 270.342 302.901 272.188 300.255ZM300.313 326.364C295.479 330.068 292.314 331.921 290.996 331.921C290.469 331.921 290.117 331.832 289.941 331.568C289.678 331.303 289.502 330.598 289.502 329.627C289.502 327.599 289.854 326.099 290.645 325.129C292.402 322.835 296.094 320.366 301.719 317.808C304.707 316.485 308.75 315.073 313.848 313.662C312.09 315.603 310.947 316.926 310.42 317.543C308.135 320.013 304.795 322.924 300.313 326.364Z" fill="#D3F2B8"/>
</svg>
